<svg xmlns="http://www.w3.org/2000/svg" width="1200" height="240">
  <!-- background -->
  <rect width="1200" height="240" fill="#000"/>
  <!-- main blue band -->
  <rect x="0" y="36" width="1200" height="120" fill="#00f"/>
  <!-- WHEFAX + HOLIDAYS (tight together) -->
  <text x="24"  y="120" font-family="monospace" font-size="92" font-weight="700" fill="#ff0">WHEFAX</text>
  <text x="360" y="120" font-family="monospace" font-size="52" font-weight="700" fill="#0ff">HOLIDAYS</text>

  <!-- teletext bars -->
  <rect x="0" y="170" width="1200" height="26" fill="#0ff"/>
  <rect x="0" y="196" width="1200" height="18" fill="#ff0"/>

<svg xmlns="http://www.w3.org/2000/svg" x="936px" y="20px" width="220" height="220" viewBox="0 0 48 48">
<path fill="#FF9800" d="M11 11H37V37H11z"></path><path fill="#FF9800" d="M11.272 11.272H36.728V36.728H11.272z" transform="rotate(-45.001 24 24)"></path><path fill="#FFEB3B" d="M13,24c0,6.077,4.923,11,11,11c6.076,0,11-4.923,11-11s-4.924-11-11-11C17.923,13,13,17.923,13,24"></path>
</svg>
</svg>
